<?xml version="1.0" encoding="utf-8" standalone="no"?>
<!DOCTYPE svg PUBLIC "-//W3C//DTD SVG 1.1//EN"
  "http://www.w3.org/Graphics/SVG/1.1/DTD/svg11.dtd">
<svg xmlns:xlink="http://www.w3.org/1999/xlink" width="288pt" height="288pt" viewBox="0 0 288 288" xmlns="http://www.w3.org/2000/svg" version="1.1">
 <metadata>
  <rdf:RDF xmlns:dc="http://purl.org/dc/elements/1.1/" xmlns:cc="http://creativecommons.org/ns#" xmlns:rdf="http://www.w3.org/1999/02/22-rdf-syntax-ns#">
   <cc:Work>
    <dc:type rdf:resource="http://purl.org/dc/dcmitype/StillImage"/>
    <dc:date>2022-09-04T18:48:01.186280</dc:date>
    <dc:format>image/svg+xml</dc:format>
    <dc:creator>
     <cc:Agent>
      <dc:title>Matplotlib v3.5.2, https://matplotlib.org/</dc:title>
     </cc:Agent>
    </dc:creator>
   </cc:Work>
  </rdf:RDF>
 </metadata>
 <defs>
  <style type="text/css">*{stroke-linejoin: round; stroke-linecap: butt}</style>
 </defs>
 <g id="figure_1">
  <g id="patch_1">
   <path d="M 0 288 
L 288 288 
L 288 0 
L 0 0 
L 0 288 
z
" style="fill: none"/>
  </g>
  <g id="axes_1">
   <g id="patch_2">
    <path d="M 137.327844 111.560236 
C 131.561252 104.613118 124.007911 99.368292 115.483832 96.392372 
C 106.959752 93.416453 97.783362 92.82061 88.946016 94.669214 
C 80.10867 96.517818 71.940498 100.741812 65.323933 106.884864 
C 58.707368 113.027917 53.889581 120.860547 51.391052 129.53657 
C 48.892523 138.212594 48.806589 147.407906 51.142532 156.12911 
C 53.478475 164.850314 58.149034 172.771617 64.649634 179.037256 
C 71.150233 185.302895 79.238035 189.678809 88.039289 191.692254 
C 96.840542 193.705699 106.026465 193.281461 114.604674 190.465371 
C 112.649981 187.721836 111.607868 184.431268 111.626867 181.06267 
C 111.645866 177.694072 112.725029 174.415469 114.710544 171.694156 
C 116.696059 168.972844 119.48889 166.94456 122.690975 165.898396 
C 125.89306 164.852231 129.344682 164.840367 132.553884 165.864495 
C 128.911256 157.099369 127.442702 147.581701 128.273942 138.126268 
C 129.105182 128.670834 132.211798 119.555376 137.327844 111.560236 
" clip-path="url(#p1cfde7568c)" style="fill: #01a2d9; opacity: 0.8"/>
   </g>
   <g id="patch_3">
    <path d="M 137.327844 111.560236 
C 144.198301 119.837201 148.197068 130.126477 148.718912 140.870731 
C 149.240756 151.614986 146.257951 162.243354 140.221958 171.14718 
C 141.555768 172.819712 142.541787 174.742182 143.1219 176.80128 
C 143.702013 178.860377 143.864593 181.014836 143.600059 183.137672 
C 147.735182 187.629729 152.544289 191.451036 157.854511 194.464234 
C 163.164734 197.477431 168.911673 199.645976 174.88875 200.891918 
C 180.865827 202.13786 187.000555 202.446089 193.072416 201.805526 
C 199.144277 201.164963 205.079636 199.583376 210.66514 197.117617 
C 216.250643 194.651858 221.418555 191.331829 225.983108 187.276873 
C 230.547662 183.221917 234.453502 178.481209 237.560229 173.225159 
C 240.666957 167.969108 242.936895 162.261457 244.288449 156.307373 
C 245.640003 150.353289 246.056781 144.224978 245.523804 138.142729 
C 244.990826 132.06048 243.514555 126.098054 241.148058 120.469776 
C 238.78156 114.841498 235.553535 109.615625 231.580017 104.980005 
C 227.606499 100.344385 222.935675 96.355237 217.735444 93.155953 
C 212.535213 89.956669 206.868639 87.586049 200.939413 86.129307 
C 195.010187 84.672565 188.890214 84.147367 182.799484 84.572593 
C 176.708753 84.997818 170.721128 86.368309 165.05184 88.634804 
C 159.382552 90.901298 154.100355 94.036308 149.395122 97.927144 
C 144.689889 101.817979 140.618681 106.417454 137.327844 111.560236 
" clip-path="url(#p1cfde7568c)" style="fill: #31a354; opacity: 0.8"/>
   </g>
   <g id="patch_4">
    <path d="M 137.327844 111.560236 
C 132.211798 119.555376 129.105182 128.670834 128.273942 138.126268 
C 127.442702 147.581701 128.911256 157.099369 132.553884 165.864495 
C 134.05663 166.344055 135.480493 167.042566 136.779484 167.937466 
C 138.078474 168.832365 139.238455 169.913915 140.221958 171.14718 
C 146.257951 162.243354 149.240756 151.614986 148.718912 140.870731 
C 148.197068 130.126477 144.198301 119.837201 137.327844 111.560236 
" clip-path="url(#p1cfde7568c)" style="fill: #23e3d3; opacity: 0.8"/>
   </g>
   <g id="patch_5">
    <path d="M 114.604674 190.465371 
C 116.479831 193.097273 119.106935 195.10241 122.140254 196.216903 
C 125.173573 197.331396 128.473939 197.504112 131.607019 196.712322 
C 134.740098 195.920531 137.562146 194.200562 139.701776 191.778764 
C 141.841405 189.356966 143.20045 186.344451 143.600059 183.137672 
C 142.438619 181.87598 141.332882 180.564124 140.286014 179.205861 
C 139.239146 177.847599 138.252147 176.444227 137.327844 174.999764 
C 134.35832 178.577204 130.901087 181.719987 127.057533 184.335946 
C 123.21398 186.951905 119.022049 189.015217 114.604674 190.465371 
" clip-path="url(#p1cfde7568c)" style="fill: #c72e29; opacity: 0.8"/>
   </g>
   <g id="patch_6">
    <path d="M 114.604674 190.465371 
C 119.022049 189.015217 123.21398 186.951905 127.057533 184.335946 
C 130.901087 181.719987 134.35832 178.577204 137.327844 174.999764 
C 136.40057 173.55066 135.537285 172.061591 134.740477 170.536849 
C 133.943669 169.012107 133.214103 167.453158 132.553884 165.864495 
C 129.344682 164.840367 125.89306 164.852231 122.690975 165.898396 
C 119.48889 166.94456 116.696059 168.972844 114.710544 171.694156 
C 112.725029 174.415469 111.645866 177.694072 111.626867 181.06267 
C 111.607868 184.431268 112.649981 187.721836 114.604674 190.465371 
" clip-path="url(#p1cfde7568c)" style="fill: #8c92b5; opacity: 0.8"/>
   </g>
   <g id="patch_7">
    <path d="M 140.221958 171.14718 
C 139.771124 171.812215 139.304219 172.466212 138.821653 173.108593 
C 138.339088 173.750974 137.841004 174.38155 137.327844 174.999764 
C 138.252147 176.444227 139.239146 177.847599 140.286014 179.205861 
C 141.332882 180.564124 142.438619 181.87598 143.600059 183.137672 
C 143.864593 181.014836 143.702013 178.860377 143.1219 176.80128 
C 142.541787 174.742182 141.555768 172.819712 140.221958 171.14718 
" clip-path="url(#p1cfde7568c)" style="fill: #ae9258; opacity: 0.8"/>
   </g>
   <g id="patch_8">
    <path d="M 132.553884 165.864495 
C 133.214103 167.453158 133.943669 169.012107 134.740477 170.536849 
C 135.537285 172.061591 136.40057 173.55066 137.327844 174.999764 
C 137.841004 174.38155 138.339088 173.750974 138.821653 173.108593 
C 139.304219 172.466212 139.771124 171.812215 140.221958 171.14718 
C 139.238455 169.913915 138.078474 168.832365 136.779484 167.937466 
C 135.480493 167.042566 134.05663 166.344055 132.553884 165.864495 
" clip-path="url(#p1cfde7568c)" style="fill: #649489; opacity: 0.8"/>
   </g>
   <g id="text_1">
    <!-- 8363 -->
    <g transform="translate(68.448945 146.864402)scale(0.1 -0.1)">
     <defs>
      <path id="DejaVuSans-38" d="M 2034 2216 
Q 1584 2216 1326 1975 
Q 1069 1734 1069 1313 
Q 1069 891 1326 650 
Q 1584 409 2034 409 
Q 2484 409 2743 651 
Q 3003 894 3003 1313 
Q 3003 1734 2745 1975 
Q 2488 2216 2034 2216 
z
M 1403 2484 
Q 997 2584 770 2862 
Q 544 3141 544 3541 
Q 544 4100 942 4425 
Q 1341 4750 2034 4750 
Q 2731 4750 3128 4425 
Q 3525 4100 3525 3541 
Q 3525 3141 3298 2862 
Q 3072 2584 2669 2484 
Q 3125 2378 3379 2068 
Q 3634 1759 3634 1313 
Q 3634 634 3220 271 
Q 2806 -91 2034 -91 
Q 1263 -91 848 271 
Q 434 634 434 1313 
Q 434 1759 690 2068 
Q 947 2378 1403 2484 
z
M 1172 3481 
Q 1172 3119 1398 2916 
Q 1625 2713 2034 2713 
Q 2441 2713 2670 2916 
Q 2900 3119 2900 3481 
Q 2900 3844 2670 4047 
Q 2441 4250 2034 4250 
Q 1625 4250 1398 4047 
Q 1172 3844 1172 3481 
z
" transform="scale(0.015625)"/>
      <path id="DejaVuSans-33" d="M 2597 2516 
Q 3050 2419 3304 2112 
Q 3559 1806 3559 1356 
Q 3559 666 3084 287 
Q 2609 -91 1734 -91 
Q 1441 -91 1130 -33 
Q 819 25 488 141 
L 488 750 
Q 750 597 1062 519 
Q 1375 441 1716 441 
Q 2309 441 2620 675 
Q 2931 909 2931 1356 
Q 2931 1769 2642 2001 
Q 2353 2234 1838 2234 
L 1294 2234 
L 1294 2753 
L 1863 2753 
Q 2328 2753 2575 2939 
Q 2822 3125 2822 3475 
Q 2822 3834 2567 4026 
Q 2313 4219 1838 4219 
Q 1578 4219 1281 4162 
Q 984 4106 628 3988 
L 628 4550 
Q 988 4650 1302 4700 
Q 1616 4750 1894 4750 
Q 2613 4750 3031 4423 
Q 3450 4097 3450 3541 
Q 3450 3153 3228 2886 
Q 3006 2619 2597 2516 
z
" transform="scale(0.015625)"/>
      <path id="DejaVuSans-36" d="M 2113 2584 
Q 1688 2584 1439 2293 
Q 1191 2003 1191 1497 
Q 1191 994 1439 701 
Q 1688 409 2113 409 
Q 2538 409 2786 701 
Q 3034 994 3034 1497 
Q 3034 2003 2786 2293 
Q 2538 2584 2113 2584 
z
M 3366 4563 
L 3366 3988 
Q 3128 4100 2886 4159 
Q 2644 4219 2406 4219 
Q 1781 4219 1451 3797 
Q 1122 3375 1075 2522 
Q 1259 2794 1537 2939 
Q 1816 3084 2150 3084 
Q 2853 3084 3261 2657 
Q 3669 2231 3669 1497 
Q 3669 778 3244 343 
Q 2819 -91 2113 -91 
Q 1303 -91 875 529 
Q 447 1150 447 2328 
Q 447 3434 972 4092 
Q 1497 4750 2381 4750 
Q 2619 4750 2861 4703 
Q 3103 4656 3366 4563 
z
" transform="scale(0.015625)"/>
     </defs>
     <use xlink:href="#DejaVuSans-38"/>
     <use xlink:href="#DejaVuSans-33" x="63.623047"/>
     <use xlink:href="#DejaVuSans-36" x="127.246094"/>
     <use xlink:href="#DejaVuSans-33" x="190.869141"/>
    </g>
   </g>
   <g id="text_2">
    <!-- 12908 -->
    <g transform="translate(200.368453 145.768129)scale(0.1 -0.1)">
     <defs>
      <path id="DejaVuSans-31" d="M 794 531 
L 1825 531 
L 1825 4091 
L 703 3866 
L 703 4441 
L 1819 4666 
L 2450 4666 
L 2450 531 
L 3481 531 
L 3481 0 
L 794 0 
L 794 531 
z
" transform="scale(0.015625)"/>
      <path id="DejaVuSans-32" d="M 1228 531 
L 3431 531 
L 3431 0 
L 469 0 
L 469 531 
Q 828 903 1448 1529 
Q 2069 2156 2228 2338 
Q 2531 2678 2651 2914 
Q 2772 3150 2772 3378 
Q 2772 3750 2511 3984 
Q 2250 4219 1831 4219 
Q 1534 4219 1204 4116 
Q 875 4013 500 3803 
L 500 4441 
Q 881 4594 1212 4672 
Q 1544 4750 1819 4750 
Q 2544 4750 2975 4387 
Q 3406 4025 3406 3419 
Q 3406 3131 3298 2873 
Q 3191 2616 2906 2266 
Q 2828 2175 2409 1742 
Q 1991 1309 1228 531 
z
" transform="scale(0.015625)"/>
      <path id="DejaVuSans-39" d="M 703 97 
L 703 672 
Q 941 559 1184 500 
Q 1428 441 1663 441 
Q 2288 441 2617 861 
Q 2947 1281 2994 2138 
Q 2813 1869 2534 1725 
Q 2256 1581 1919 1581 
Q 1219 1581 811 2004 
Q 403 2428 403 3163 
Q 403 3881 828 4315 
Q 1253 4750 1959 4750 
Q 2769 4750 3195 4129 
Q 3622 3509 3622 2328 
Q 3622 1225 3098 567 
Q 2575 -91 1691 -91 
Q 1453 -91 1209 -44 
Q 966 3 703 97 
z
M 1959 2075 
Q 2384 2075 2632 2365 
Q 2881 2656 2881 3163 
Q 2881 3666 2632 3958 
Q 2384 4250 1959 4250 
Q 1534 4250 1286 3958 
Q 1038 3666 1038 3163 
Q 1038 2656 1286 2365 
Q 1534 2075 1959 2075 
z
" transform="scale(0.015625)"/>
      <path id="DejaVuSans-30" d="M 2034 4250 
Q 1547 4250 1301 3770 
Q 1056 3291 1056 2328 
Q 1056 1369 1301 889 
Q 1547 409 2034 409 
Q 2525 409 2770 889 
Q 3016 1369 3016 2328 
Q 3016 3291 2770 3770 
Q 2525 4250 2034 4250 
z
M 2034 4750 
Q 2819 4750 3233 4129 
Q 3647 3509 3647 2328 
Q 3647 1150 3233 529 
Q 2819 -91 2034 -91 
Q 1250 -91 836 529 
Q 422 1150 422 2328 
Q 422 3509 836 4129 
Q 1250 4750 2034 4750 
z
" transform="scale(0.015625)"/>
     </defs>
     <use xlink:href="#DejaVuSans-31"/>
     <use xlink:href="#DejaVuSans-32" x="63.623047"/>
     <use xlink:href="#DejaVuSans-39" x="127.246094"/>
     <use xlink:href="#DejaVuSans-30" x="190.869141"/>
     <use xlink:href="#DejaVuSans-38" x="254.492188"/>
    </g>
   </g>
   <g id="text_3">
    <!-- 1075 -->
    <g transform="translate(126.586879 148.309339)scale(0.1 -0.1)">
     <defs>
      <path id="DejaVuSans-37" d="M 525 4666 
L 3525 4666 
L 3525 4397 
L 1831 0 
L 1172 0 
L 2766 4134 
L 525 4134 
L 525 4666 
z
" transform="scale(0.015625)"/>
      <path id="DejaVuSans-35" d="M 691 4666 
L 3169 4666 
L 3169 4134 
L 1269 4134 
L 1269 2991 
Q 1406 3038 1543 3061 
Q 1681 3084 1819 3084 
Q 2600 3084 3056 2656 
Q 3513 2228 3513 1497 
Q 3513 744 3044 326 
Q 2575 -91 1722 -91 
Q 1428 -91 1123 -41 
Q 819 9 494 109 
L 494 744 
Q 775 591 1075 516 
Q 1375 441 1709 441 
Q 2250 441 2565 725 
Q 2881 1009 2881 1497 
Q 2881 1984 2565 2268 
Q 2250 2553 1709 2553 
Q 1456 2553 1204 2497 
Q 953 2441 691 2322 
L 691 4666 
z
" transform="scale(0.015625)"/>
     </defs>
     <use xlink:href="#DejaVuSans-31"/>
     <use xlink:href="#DejaVuSans-30" x="63.623047"/>
     <use xlink:href="#DejaVuSans-37" x="127.246094"/>
     <use xlink:href="#DejaVuSans-35" x="190.869141"/>
    </g>
   </g>
   <g id="text_4">
    <!-- 467 -->
    <g transform="translate(121.733319 196.280793)scale(0.1 -0.1)">
     <defs>
      <path id="DejaVuSans-34" d="M 2419 4116 
L 825 1625 
L 2419 1625 
L 2419 4116 
z
M 2253 4666 
L 3047 4666 
L 3047 1625 
L 3713 1625 
L 3713 1100 
L 3047 1100 
L 3047 0 
L 2419 0 
L 2419 1100 
L 313 1100 
L 313 1709 
L 2253 4666 
z
" transform="scale(0.015625)"/>
     </defs>
     <use xlink:href="#DejaVuSans-34"/>
     <use xlink:href="#DejaVuSans-36" x="63.623047"/>
     <use xlink:href="#DejaVuSans-37" x="127.246094"/>
    </g>
   </g>
   <g id="text_5">
    <!-- 496 -->
    <g transform="translate(108.393075 176.582308)scale(0.1 -0.1)">
     <use xlink:href="#DejaVuSans-34"/>
     <use xlink:href="#DejaVuSans-39" x="63.623047"/>
     <use xlink:href="#DejaVuSans-36" x="127.246094"/>
    </g>
   </g>
   <g id="text_6">
    <!-- 0 -->
    <g transform="translate(139.086493 179.618578)scale(0.1 -0.1)">
     <use xlink:href="#DejaVuSans-30"/>
    </g>
   </g>
   <g id="text_7">
    <!-- 83 -->
    <g transform="translate(130.231917 171.809091)scale(0.1 -0.1)">
     <use xlink:href="#DejaVuSans-38"/>
     <use xlink:href="#DejaVuSans-33" x="63.623047"/>
    </g>
   </g>
   <g id="text_8">
    <!-- scATAC-seq -->
    <g transform="translate(5.794877 93.617078)scale(0.12 -0.12)">
     <defs>
      <path id="DejaVuSans-73" d="M 2834 3397 
L 2834 2853 
Q 2591 2978 2328 3040 
Q 2066 3103 1784 3103 
Q 1356 3103 1142 2972 
Q 928 2841 928 2578 
Q 928 2378 1081 2264 
Q 1234 2150 1697 2047 
L 1894 2003 
Q 2506 1872 2764 1633 
Q 3022 1394 3022 966 
Q 3022 478 2636 193 
Q 2250 -91 1575 -91 
Q 1294 -91 989 -36 
Q 684 19 347 128 
L 347 722 
Q 666 556 975 473 
Q 1284 391 1588 391 
Q 1994 391 2212 530 
Q 2431 669 2431 922 
Q 2431 1156 2273 1281 
Q 2116 1406 1581 1522 
L 1381 1569 
Q 847 1681 609 1914 
Q 372 2147 372 2553 
Q 372 3047 722 3315 
Q 1072 3584 1716 3584 
Q 2034 3584 2315 3537 
Q 2597 3491 2834 3397 
z
" transform="scale(0.015625)"/>
      <path id="DejaVuSans-63" d="M 3122 3366 
L 3122 2828 
Q 2878 2963 2633 3030 
Q 2388 3097 2138 3097 
Q 1578 3097 1268 2742 
Q 959 2388 959 1747 
Q 959 1106 1268 751 
Q 1578 397 2138 397 
Q 2388 397 2633 464 
Q 2878 531 3122 666 
L 3122 134 
Q 2881 22 2623 -34 
Q 2366 -91 2075 -91 
Q 1284 -91 818 406 
Q 353 903 353 1747 
Q 353 2603 823 3093 
Q 1294 3584 2113 3584 
Q 2378 3584 2631 3529 
Q 2884 3475 3122 3366 
z
" transform="scale(0.015625)"/>
      <path id="DejaVuSans-41" d="M 2188 4044 
L 1331 1722 
L 3047 1722 
L 2188 4044 
z
M 1831 4666 
L 2547 4666 
L 4325 0 
L 3669 0 
L 3244 1197 
L 1141 1197 
L 716 0 
L 50 0 
L 1831 4666 
z
" transform="scale(0.015625)"/>
      <path id="DejaVuSans-54" d="M -19 4666 
L 3928 4666 
L 3928 4134 
L 2272 4134 
L 2272 0 
L 1638 0 
L 1638 4134 
L -19 4134 
L -19 4666 
z
" transform="scale(0.015625)"/>
      <path id="DejaVuSans-43" d="M 4122 4306 
L 4122 3641 
Q 3803 3938 3442 4084 
Q 3081 4231 2675 4231 
Q 1875 4231 1450 3742 
Q 1025 3253 1025 2328 
Q 1025 1406 1450 917 
Q 1875 428 2675 428 
Q 3081 428 3442 575 
Q 3803 722 4122 1019 
L 4122 359 
Q 3791 134 3420 21 
Q 3050 -91 2638 -91 
Q 1578 -91 968 557 
Q 359 1206 359 2328 
Q 359 3453 968 4101 
Q 1578 4750 2638 4750 
Q 3056 4750 3426 4639 
Q 3797 4528 4122 4306 
z
" transform="scale(0.015625)"/>
      <path id="DejaVuSans-2d" d="M 313 2009 
L 1997 2009 
L 1997 1497 
L 313 1497 
L 313 2009 
z
" transform="scale(0.015625)"/>
      <path id="DejaVuSans-65" d="M 3597 1894 
L 3597 1613 
L 953 1613 
Q 991 1019 1311 708 
Q 1631 397 2203 397 
Q 2534 397 2845 478 
Q 3156 559 3463 722 
L 3463 178 
Q 3153 47 2828 -22 
Q 2503 -91 2169 -91 
Q 1331 -91 842 396 
Q 353 884 353 1716 
Q 353 2575 817 3079 
Q 1281 3584 2069 3584 
Q 2775 3584 3186 3129 
Q 3597 2675 3597 1894 
z
M 3022 2063 
Q 3016 2534 2758 2815 
Q 2500 3097 2075 3097 
Q 1594 3097 1305 2825 
Q 1016 2553 972 2059 
L 3022 2063 
z
" transform="scale(0.015625)"/>
      <path id="DejaVuSans-71" d="M 947 1747 
Q 947 1113 1208 752 
Q 1469 391 1925 391 
Q 2381 391 2643 752 
Q 2906 1113 2906 1747 
Q 2906 2381 2643 2742 
Q 2381 3103 1925 3103 
Q 1469 3103 1208 2742 
Q 947 2381 947 1747 
z
M 2906 525 
Q 2725 213 2448 61 
Q 2172 -91 1784 -91 
Q 1150 -91 751 415 
Q 353 922 353 1747 
Q 353 2572 751 3078 
Q 1150 3584 1784 3584 
Q 2172 3584 2448 3432 
Q 2725 3281 2906 2969 
L 2906 3500 
L 3481 3500 
L 3481 -1331 
L 2906 -1331 
L 2906 525 
z
" transform="scale(0.015625)"/>
     </defs>
     <use xlink:href="#DejaVuSans-73"/>
     <use xlink:href="#DejaVuSans-63" x="52.099609"/>
     <use xlink:href="#DejaVuSans-41" x="107.080078"/>
     <use xlink:href="#DejaVuSans-54" x="167.738281"/>
     <use xlink:href="#DejaVuSans-41" x="221.072266"/>
     <use xlink:href="#DejaVuSans-43" x="287.730469"/>
     <use xlink:href="#DejaVuSans-2d" x="357.554688"/>
     <use xlink:href="#DejaVuSans-73" x="393.638672"/>
     <use xlink:href="#DejaVuSans-65" x="445.738281"/>
     <use xlink:href="#DejaVuSans-71" x="507.261719"/>
    </g>
   </g>
   <g id="text_9">
    <!-- PCHiC -->
    <g transform="translate(216.323305 84.429692)scale(0.12 -0.12)">
     <defs>
      <path id="DejaVuSans-50" d="M 1259 4147 
L 1259 2394 
L 2053 2394 
Q 2494 2394 2734 2622 
Q 2975 2850 2975 3272 
Q 2975 3691 2734 3919 
Q 2494 4147 2053 4147 
L 1259 4147 
z
M 628 4666 
L 2053 4666 
Q 2838 4666 3239 4311 
Q 3641 3956 3641 3272 
Q 3641 2581 3239 2228 
Q 2838 1875 2053 1875 
L 1259 1875 
L 1259 0 
L 628 0 
L 628 4666 
z
" transform="scale(0.015625)"/>
      <path id="DejaVuSans-48" d="M 628 4666 
L 1259 4666 
L 1259 2753 
L 3553 2753 
L 3553 4666 
L 4184 4666 
L 4184 0 
L 3553 0 
L 3553 2222 
L 1259 2222 
L 1259 0 
L 628 0 
L 628 4666 
z
" transform="scale(0.015625)"/>
      <path id="DejaVuSans-69" d="M 603 3500 
L 1178 3500 
L 1178 0 
L 603 0 
L 603 3500 
z
M 603 4863 
L 1178 4863 
L 1178 4134 
L 603 4134 
L 603 4863 
z
" transform="scale(0.015625)"/>
     </defs>
     <use xlink:href="#DejaVuSans-50"/>
     <use xlink:href="#DejaVuSans-43" x="60.302734"/>
     <use xlink:href="#DejaVuSans-48" x="130.126953"/>
     <use xlink:href="#DejaVuSans-69" x="205.322266"/>
     <use xlink:href="#DejaVuSans-43" x="233.105469"/>
    </g>
   </g>
   <g id="text_10">
    <!-- Chip-seq -->
    <g transform="translate(101.415546 207.924447)scale(0.12 -0.12)">
     <defs>
      <path id="DejaVuSans-68" d="M 3513 2113 
L 3513 0 
L 2938 0 
L 2938 2094 
Q 2938 2591 2744 2837 
Q 2550 3084 2163 3084 
Q 1697 3084 1428 2787 
Q 1159 2491 1159 1978 
L 1159 0 
L 581 0 
L 581 4863 
L 1159 4863 
L 1159 2956 
Q 1366 3272 1645 3428 
Q 1925 3584 2291 3584 
Q 2894 3584 3203 3211 
Q 3513 2838 3513 2113 
z
" transform="scale(0.015625)"/>
      <path id="DejaVuSans-70" d="M 1159 525 
L 1159 -1331 
L 581 -1331 
L 581 3500 
L 1159 3500 
L 1159 2969 
Q 1341 3281 1617 3432 
Q 1894 3584 2278 3584 
Q 2916 3584 3314 3078 
Q 3713 2572 3713 1747 
Q 3713 922 3314 415 
Q 2916 -91 2278 -91 
Q 1894 -91 1617 61 
Q 1341 213 1159 525 
z
M 3116 1747 
Q 3116 2381 2855 2742 
Q 2594 3103 2138 3103 
Q 1681 3103 1420 2742 
Q 1159 2381 1159 1747 
Q 1159 1113 1420 752 
Q 1681 391 2138 391 
Q 2594 391 2855 752 
Q 3116 1113 3116 1747 
z
" transform="scale(0.015625)"/>
     </defs>
     <use xlink:href="#DejaVuSans-43"/>
     <use xlink:href="#DejaVuSans-68" x="69.824219"/>
     <use xlink:href="#DejaVuSans-69" x="133.203125"/>
     <use xlink:href="#DejaVuSans-70" x="160.986328"/>
     <use xlink:href="#DejaVuSans-2d" x="224.462891"/>
     <use xlink:href="#DejaVuSans-73" x="260.546875"/>
     <use xlink:href="#DejaVuSans-65" x="312.646484"/>
     <use xlink:href="#DejaVuSans-71" x="374.169922"/>
    </g>
   </g>
  </g>
 </g>
 <defs>
  <clipPath id="p1cfde7568c">
   <rect x="36" y="70.978151" width="223.2" height="144.603699"/>
  </clipPath>
 </defs>
</svg>
